<mxfile host="Electron" modified="2023-12-03T12:37:23.762Z" agent="Mozilla/5.0 (Windows NT 10.0; Win64; x64) AppleWebKit/537.36 (KHTML, like Gecko) draw.io/22.1.2 Chrome/114.0.5735.289 Electron/25.9.4 Safari/537.36" etag="TX_Ez8NcfAvAkoQks3bB" version="22.1.2" type="device">
  <diagram name="Page-1" id="74e2e168-ea6b-b213-b513-2b3c1d86103e">
    <mxGraphModel dx="1176" dy="702" grid="1" gridSize="10" guides="0" tooltips="1" connect="1" arrows="0" fold="1" page="1" pageScale="1" pageWidth="827" pageHeight="1169" background="none" math="0" shadow="0">
      <root>
        <mxCell id="0" />
        <mxCell id="1" parent="0" />
        <mxCell id="GEsONsv_8qL6iSuzSnir-2" value="" style="endArrow=none;html=1;rounded=0;entryX=0.5;entryY=1;entryDx=0;entryDy=0;entryPerimeter=0;exitX=0.5;exitY=0;exitDx=0;exitDy=0;" parent="1" edge="1">
          <mxGeometry width="50" height="50" relative="1" as="geometry">
            <mxPoint x="420" y="130" as="sourcePoint" />
            <mxPoint x="420" y="110" as="targetPoint" />
          </mxGeometry>
        </mxCell>
        <mxCell id="GEsONsv_8qL6iSuzSnir-52" value="&lt;b&gt;f&lt;br&gt;&lt;/b&gt;" style="rounded=1;whiteSpace=wrap;html=1;arcSize=50;" parent="1" vertex="1">
          <mxGeometry x="380" y="70" width="80" height="40" as="geometry" />
        </mxCell>
        <mxCell id="GEsONsv_8qL6iSuzSnir-53" value="&lt;b&gt;Конец&lt;/b&gt;" style="rounded=1;whiteSpace=wrap;html=1;arcSize=50;" parent="1" vertex="1">
          <mxGeometry x="380" y="210" width="80" height="40" as="geometry" />
        </mxCell>
        <mxCell id="GEsONsv_8qL6iSuzSnir-54" value="" style="group" parent="1" vertex="1" connectable="0">
          <mxGeometry x="460" y="60" width="220" height="60" as="geometry" />
        </mxCell>
        <mxCell id="cmF1lUIxUgk8CuS8iypQ-2" value="" style="strokeWidth=2;html=1;shape=mxgraph.flowchart.annotation_2;align=left;labelPosition=right;pointerEvents=1;fontFamily=Helvetica;" parent="GEsONsv_8qL6iSuzSnir-54" vertex="1">
          <mxGeometry width="50" height="60" as="geometry" />
        </mxCell>
        <mxCell id="cmF1lUIxUgk8CuS8iypQ-3" value="&lt;div style=&quot;&quot;&gt;&lt;font size=&quot;1&quot;&gt;Функция &lt;b&gt;f&lt;/b&gt;&lt;/font&gt;&lt;/div&gt;&lt;div style=&quot;&quot;&gt;&lt;font size=&quot;1&quot;&gt;Входные параметры&amp;nbsp;&lt;b&gt;x, y&lt;/b&gt;&lt;/font&gt;&lt;/div&gt;&lt;div style=&quot;&quot;&gt;&lt;font size=&quot;1&quot;&gt;Возвращаемое значение &lt;b&gt;z&lt;/b&gt;&lt;/font&gt;&lt;/div&gt;" style="text;html=1;strokeColor=none;fillColor=none;align=left;verticalAlign=middle;whiteSpace=wrap;rounded=0;fontFamily=Helvetica;" parent="GEsONsv_8qL6iSuzSnir-54" vertex="1">
          <mxGeometry x="30" width="190" height="60" as="geometry" />
        </mxCell>
        <mxCell id="5uWECLl4kH1Oyx76siNS-15" value="" style="endArrow=none;html=1;rounded=0;entryX=0.5;entryY=1;entryDx=0;entryDy=0;exitX=0.5;exitY=0;exitDx=0;exitDy=0;" parent="1" source="GEsONsv_8qL6iSuzSnir-53" target="iNMBHQpSzxlacm7BsI9w-1" edge="1">
          <mxGeometry width="50" height="50" relative="1" as="geometry">
            <mxPoint x="110" y="340" as="sourcePoint" />
            <mxPoint x="420" y="320" as="targetPoint" />
          </mxGeometry>
        </mxCell>
        <mxCell id="iNMBHQpSzxlacm7BsI9w-1" value="z = sin(x^2) + cos(x)^3 - 0.1 + y" style="rounded=0;whiteSpace=wrap;html=1;" vertex="1" parent="1">
          <mxGeometry x="360" y="130" width="120" height="60" as="geometry" />
        </mxCell>
      </root>
    </mxGraphModel>
  </diagram>
</mxfile>
